# xmcd
#
# Track frame offsets:
#	150
#	23012
#	50335
#	68174
#	94439
#	125586
#	143560
#	162661
#
# Disc length: 2433 seconds
#
# Revision: 0
# Processed by: cddbd v1.5.2PL0 Copyright (c) Steve Scherf et al.
# Submitted via: EZCDAudioConverter 7.0.6.1
#
DISCID=6d097f08
DTITLE=Ernie Hawks and The Soul Investigators - Scorpio Man
DYEAR=1900
DGENRE=
TTITLE0=The Scorpio Walk
TTITLE1=Still Trippin'
TTITLE2=Bag Full Of Miracles
TTITLE3=Street Of Tears
TTITLE4=Windy City Blues
TTITLE5=Scorpio Man Theme
TTITLE6=Cold Turkey Time
TTITLE7=Journey To The Bottom
EXTD=
EXTT0=
EXTT1=
EXTT2=
EXTT3=
EXTT4=
EXTT5=
EXTT6=
EXTT7=
PLAYORDER=
